<svg width="16" height="16" viewBox="0 0 16 16" fill="none" xmlns="http://www.w3.org/2000/svg">
<path d="M15.7143 7.07143C15.7143 6.47991 15.2344 6 14.6429 6H10V1.35714C10 0.765624 9.52009 0.285713 8.92857 0.285713H6.78571C6.1942 0.285713 5.71429 0.765624 5.71429 1.35714V6H1.07143C0.479911 6 0 6.47991 0 7.07143V9.21429C0 9.8058 0.479911 10.2857 1.07143 10.2857H5.71429V14.9286C5.71429 15.5201 6.1942 16 6.78571 16H8.92857C9.52009 16 10 15.5201 10 14.9286V10.2857H14.6429C15.2344 10.2857 15.7143 9.8058 15.7143 9.21429V7.07143Z" fill="#0098D7"/>
</svg>
