<svg width="26" height="26" viewBox="0 0 26 26" fill="none" xmlns="http://www.w3.org/2000/svg">
<path d="M25.5246 20.4621C25.5246 19.9319 25.3125 19.4018 24.9308 19.0201L18.6964 12.7857L24.9308 6.55134C25.3125 6.16964 25.5246 5.63951 25.5246 5.10938C25.5246 4.57924 25.3125 4.04911 24.9308 3.66741L22.0469 0.783481C21.6652 0.401784 21.135 0.189731 20.6049 0.189731C20.0748 0.189731 19.5446 0.401784 19.1629 0.783481L12.9286 7.01786L6.6942 0.783481C6.3125 0.401784 5.78237 0.189731 5.25223 0.189731C4.7221 0.189731 4.19196 0.401784 3.81027 0.783481L0.926339 3.66741C0.544643 4.04911 0.332589 4.57924 0.332589 5.10938C0.332589 5.63951 0.544643 6.16964 0.926339 6.55134L7.16071 12.7857L0.926339 19.0201C0.544643 19.4018 0.332589 19.9319 0.332589 20.4621C0.332589 20.9922 0.544643 21.5223 0.926339 21.904L3.81027 24.7879C4.19196 25.1696 4.7221 25.3817 5.25223 25.3817C5.78237 25.3817 6.3125 25.1696 6.6942 24.7879L12.9286 18.5536L19.1629 24.7879C19.5446 25.1696 20.0748 25.3817 20.6049 25.3817C21.135 25.3817 21.6652 25.1696 22.0469 24.7879L24.9308 21.904C25.3125 21.5223 25.5246 20.9922 25.5246 20.4621Z" fill="#E2E2E2"/>
</svg>
